{
  "accessors": [
    {
      "bufferView": 0,
      "componentType": 5126,
      "count": 3625,
      "max": [
        0.0470513254404068,
        0.08940321207046509,
        0.08373670279979706
      ],
      "min": [
        -0.04926568269729614,
        -0.08842764794826508,
        0.012460358440876007
      ],
      "name": "chuzu02/POSITION",
      "type": "VEC3"
    },
    {
      "bufferView": 0,
      "byteOffset": 12,
      "componentType": 5126,
      "count": 3625,
      "name": "chuzu02/NORMAL",
      "type": "VEC3"
    },
    {
      "bufferView": 0,
      "byteOffset": 24,
      "componentType": 5126,
      "count": 3625,
      "name": "chuzu02/TEXCOORD_0",
      "type": "VEC2"
    },
    {
      "bufferView": 1,
      "componentType": 5125,
      "count": 5391,
      "name": "chuzu02/INDICES",
      "type": "SCALAR"
    },
    {
      "bufferView": 2,
      "componentType": 5126,
      "count": 120,
      "max": [
        0.007245300803333521,
        0.01356638316065073,
        0.014388065785169601
      ],
      "min": [
        -0.0072847106494009495,
        -0.013566391542553902,
        -0.0130294319242239
      ],
      "name": "tyre4/POSITION",
      "type": "VEC3"
    },
    {
      "bufferView": 2,
      "byteOffset": 12,
      "componentType": 5126,
      "count": 120,
      "name": "tyre4/NORMAL",
      "type": "VEC3"
    },
    {
      "bufferView": 2,
      "byteOffset": 24,
      "componentType": 5126,
      "count": 120,
      "name": "tyre4/TEXCOORD_0",
      "type": "VEC2"
    },
    {
      "bufferView": 3,
      "componentType": 5125,
      "count": 120,
      "name": "tyre4/INDICES",
      "type": "SCALAR"
    },
    {
      "bufferView": 4,
      "componentType": 5126,
      "count": 120,
      "max": [
        0.009410417638719082,
        0.013566354289650917,
        0.01441924273967743
      ],
      "min": [
        -0.00509336544200778,
        -0.01356640923768282,
        -0.01299825869500637
      ],
      "name": "tyre1/POSITION",
      "type": "VEC3"
    },
    {
      "bufferView": 4,
      "byteOffset": 12,
      "componentType": 5126,
      "count": 120,
      "name": "tyre1/NORMAL",
      "type": "VEC3"
    },
    {
      "bufferView": 4,
      "byteOffset": 24,
      "componentType": 5126,
      "count": 120,
      "name": "tyre1/TEXCOORD_0",
      "type": "VEC2"
    },
    {
      "bufferView": 5,
      "componentType": 5125,
      "count": 120,
      "name": "tyre1/INDICES",
      "type": "SCALAR"
    },
    {
      "bufferView": 6,
      "componentType": 5126,
      "count": 120,
      "max": [
        0.007245360407978296,
        0.013566367328166962,
        0.014388094656169415
      ],
      "min": [
        -0.007284767460078001,
        -0.013566398993134499,
        -0.013029412366449833
      ],
      "name": "tyre2/POSITION",
      "type": "VEC3"
    },
    {
      "bufferView": 6,
      "byteOffset": 12,
      "componentType": 5126,
      "count": 120,
      "name": "tyre2/NORMAL",
      "type": "VEC3"
    },
    {
      "bufferView": 6,
      "byteOffset": 24,
      "componentType": 5126,
      "count": 120,
      "name": "tyre2/TEXCOORD_0",
      "type": "VEC2"
    },
    {
      "bufferView": 7,
      "componentType": 5125,
      "count": 120,
      "name": "tyre2/INDICES",
      "type": "SCALAR"
    },
    {
      "bufferView": 8,
      "componentType": 5126,
      "count": 120,
      "max": [
        0.00941048376262188,
        0.013566357083618641,
        0.0144191924482584
      ],
      "min": [
        -0.0050933752208948135,
        -0.01356639713048935,
        -0.012998306192457676
      ],
      "name": "tyre3/POSITION",
      "type": "VEC3"
    },
    {
      "bufferView": 8,
      "byteOffset": 12,
      "componentType": 5126,
      "count": 120,
      "name": "tyre3/NORMAL",
      "type": "VEC3"
    },
    {
      "bufferView": 8,
      "byteOffset": 24,
      "componentType": 5126,
      "count": 120,
      "name": "tyre3/TEXCOORD_0",
      "type": "VEC2"
    },
    {
      "bufferView": 9,
      "componentType": 5125,
      "count": 120,
      "name": "tyre3/INDICES",
      "type": "SCALAR"
    },
    {
      "bufferView": 10,
      "componentType": 5126,
      "count": 64,
      "max": [
        0.044579751789569855,
        0.006969614420086145,
        0.0049535175785422325
      ],
      "min": [
        -0.04458998143672943,
        -0.006960892118513584,
        -0.004960276186466217
      ],
      "name": "light1/POSITION",
      "type": "VEC3"
    },
    {
      "bufferView": 10,
      "byteOffset": 12,
      "componentType": 5126,
      "count": 64,
      "name": "light1/NORMAL",
      "type": "VEC3"
    },
    {
      "bufferView": 10,
      "byteOffset": 24,
      "componentType": 5126,
      "count": 64,
      "name": "light1/TEXCOORD_0",
      "type": "VEC2"
    },
    {
      "bufferView": 11,
      "componentType": 5125,
      "count": 96,
      "name": "light1/INDICES",
      "type": "SCALAR"
    }
  ],
  "asset": {
    "copyright": "Copyright (c) 2018-2020 Chukong Technologies Inc.",
    "generator": "FBX-glTF-conv",
    "version": "2.0"
  },
  "bufferViews": [
    {
      "buffer": 0,
      "byteLength": 116000,
      "byteStride": 32,
      "name": "chuzu02",
      "target": 34962
    },
    {
      "buffer": 0,
      "byteLength": 21564,
      "byteOffset": 116000
    },
    {
      "buffer": 0,
      "byteLength": 3840,
      "byteOffset": 137564,
      "byteStride": 32,
      "name": "tyre4",
      "target": 34962
    },
    {
      "buffer": 0,
      "byteLength": 480,
      "byteOffset": 141404
    },
    {
      "buffer": 0,
      "byteLength": 3840,
      "byteOffset": 141884,
      "byteStride": 32,
      "name": "tyre1",
      "target": 34962
    },
    {
      "buffer": 0,
      "byteLength": 480,
      "byteOffset": 145724
    },
    {
      "buffer": 0,
      "byteLength": 3840,
      "byteOffset": 146204,
      "byteStride": 32,
      "name": "tyre2",
      "target": 34962
    },
    {
      "buffer": 0,
      "byteLength": 480,
      "byteOffset": 150044
    },
    {
      "buffer": 0,
      "byteLength": 3840,
      "byteOffset": 150524,
      "byteStride": 32,
      "name": "tyre3",
      "target": 34962
    },
    {
      "buffer": 0,
      "byteLength": 480,
      "byteOffset": 154364
    },
    {
      "buffer": 0,
      "byteLength": 2048,
      "byteOffset": 154844,
      "byteStride": 32,
      "name": "light1",
      "target": 34962
    },
    {
      "buffer": 0,
      "byteLength": 384,
      "byteOffset": 156892
    }
  ],
  "buffers": [
    {
      "byteLength": 157276,
      "uri": "out.bin"
    }
  ],
  "extras": {
    "FBX-glTF-conv": {
      "animationFrameRate": 30.0
    }
  },
  "images": [
    {
      "extras": {
        "FBX-glTF-conv": {
          "fileName": "F:\\游戏项目\\2019雅基项目\\3D汽车\\model\\cars\\taxi\\taxi\\taxi01.jpg",
          "relativeFileName": "..\\..\\..\\..\\..\\model\\cars\\taxi\\taxi\\taxi01.jpg"
        }
      },
      "name": "贴图 #13",
      "uri": "data:image/png;base64,"
    }
  ],
  "materials": [
    {
      "name": "Material #13",
      "pbrMetallicRoughness": {
        "baseColorTexture": {
          "index": 0
        },
        "metallicFactor": 0.4000000059604645,
        "roughnessFactor": 0.7071067690849304
      }
    }
  ],
  "meshes": [
    {
      "name": "chuzu02",
      "primitives": [
        {
          "attributes": {
            "NORMAL": 1,
            "POSITION": 0,
            "TEXCOORD_0": 2
          },
          "indices": 3,
          "material": 0
        }
      ]
    },
    {
      "name": "tyre4",
      "primitives": [
        {
          "attributes": {
            "NORMAL": 5,
            "POSITION": 4,
            "TEXCOORD_0": 6
          },
          "indices": 7,
          "material": 0
        }
      ]
    },
    {
      "name": "tyre1",
      "primitives": [
        {
          "attributes": {
            "NORMAL": 9,
            "POSITION": 8,
            "TEXCOORD_0": 10
          },
          "indices": 11,
          "material": 0
        }
      ]
    },
    {
      "name": "tyre2",
      "primitives": [
        {
          "attributes": {
            "NORMAL": 13,
            "POSITION": 12,
            "TEXCOORD_0": 14
          },
          "indices": 15,
          "material": 0
        }
      ]
    },
    {
      "name": "tyre3",
      "primitives": [
        {
          "attributes": {
            "NORMAL": 17,
            "POSITION": 16,
            "TEXCOORD_0": 18
          },
          "indices": 19,
          "material": 0
        }
      ]
    },
    {
      "name": "light1",
      "primitives": [
        {
          "attributes": {
            "NORMAL": 21,
            "POSITION": 20,
            "TEXCOORD_0": 22
          },
          "indices": 23,
          "material": 0
        }
      ]
    }
  ],
  "nodes": [
    {
      "mesh": 0,
      "name": "chuzu02",
      "rotation": [
        0.7009090781211853,
        -6.127542206968428e-08,
        -6.235435279222656e-08,
        0.7132506370544434
      ],
      "scale": [
        -2.456080913543701,
        -2.456080913543701,
        -2.3877599239349365
      ]
    },
    {
      "mesh": 1,
      "name": "tyre4",
      "rotation": [
        0.7071066498756409,
        6.181723932741079e-08,
        1.203626025345246e-14,
        0.7071069478988647
      ],
      "scale": [
        -2.456080913543701,
        -2.456080913543701,
        -2.3877599239349365
      ],
      "translation": [
        0.09842519462108612,
        0.03525617718696594,
        -0.13308517634868622
      ]
    },
    {
      "mesh": 2,
      "name": "tyre1",
      "rotation": [
        0.7071065306663513,
        6.181723932741079e-08,
        1.9405448588630768e-14,
        0.7071070075035095
      ],
      "scale": [
        -2.456080913543701,
        -2.456080913543701,
        -2.3877599239349365
      ],
      "translation": [
        -0.09055118262767792,
        0.03525618463754654,
        0.11480187624692917
      ]
    },
    {
      "mesh": 3,
      "name": "tyre2",
      "rotation": [
        0.7071065306663513,
        6.181723932741079e-08,
        1.9405448588630768e-14,
        0.7071070075035095
      ],
      "scale": [
        -2.456080913543701,
        -2.456080913543701,
        -2.3877599239349365
      ],
      "translation": [
        0.09842519462108612,
        0.03525616228580475,
        0.11480182409286499
      ]
    },
    {
      "mesh": 4,
      "name": "tyre3",
      "rotation": [
        0.7071065306663513,
        6.181723932741079e-08,
        1.9405448588630768e-14,
        0.7071070075035095
      ],
      "scale": [
        -2.456080913543701,
        -2.456080913543701,
        -2.3877599239349365
      ],
      "translation": [
        -0.09055118262767792,
        0.035256192088127136,
        -0.13308513164520264
      ]
    },
    {
      "mesh": 5,
      "name": "light1",
      "rotation": [
        0.7009090781211853,
        -6.127542206968428e-08,
        -6.235435279222656e-08,
        0.7132506370544434
      ],
      "scale": [
        -2.456080913543701,
        -2.456080913543701,
        -2.3877599239349365
      ],
      "translation": [
        0.002547149546444416,
        0.0895572304725647,
        0.1968606561422348
      ]
    }
  ],
  "samplers": [
    {}
  ],
  "scenes": [
    {
      "nodes": [
        0,
        1,
        2,
        3,
        4,
        5
      ]
    }
  ],
  "textures": [
    {
      "name": "贴图 #13",
      "sampler": 0,
      "source": 0
    }
  ]
}