{
    "asset": {
        "generator": "FBX2glTF v0.9.7",
        "version": "2.0"
    },
    "scene": 0,
    "buffers": [
        {
            "byteLength": 9584,
            "uri": "buffer.bin"
        }
    ],
    "bufferViews": [
        {
            "buffer": 0,
            "byteLength": 2160,
            "byteOffset": 0,
            "target": 34963
        },
        {
            "buffer": 0,
            "byteLength": 2784,
            "byteOffset": 2160,
            "target": 34962
        },
        {
            "buffer": 0,
            "byteLength": 2784,
            "byteOffset": 4944,
            "target": 34962
        },
        {
            "buffer": 0,
            "byteLength": 1856,
            "byteOffset": 7728,
            "target": 34962
        }
    ],
    "scenes": [
        {
            "name": "Root Scene",
            "nodes": [
                0
            ]
        }
    ],
    "accessors": [
        {
            "componentType": 5123,
            "type": "SCALAR",
            "count": 1080,
            "bufferView": 0,
            "byteOffset": 0
        },
        {
            "componentType": 5126,
            "type": "VEC3",
            "count": 232,
            "bufferView": 1,
            "byteOffset": 0,
            "min": [
                -0.75,
                -0.75,
                -0.75
            ],
            "max": [
                0.75,
                0.75,
                0.75
            ]
        },
        {
            "componentType": 5126,
            "type": "VEC3",
            "count": 232,
            "bufferView": 2,
            "byteOffset": 0
        },
        {
            "componentType": 5126,
            "type": "VEC2",
            "count": 232,
            "bufferView": 3,
            "byteOffset": 0
        }
    ],
    "images": [
        {
            "name": "贴图 #1",
            "uri": "data:image/png;base64,"
        }
    ],
    "samplers": [
        {}
    ],
    "textures": [
        {
            "name": "贴图 #1",
            "sampler": 0,
            "source": 0
        }
    ],
    "materials": [
        {
            "name": "Material #25",
            "alphaMode": "OPAQUE",
            "extras": {
                "fromFBX": {
                    "shadingModel": "Phong",
                    "isTruePBR": false
                }
            },
            "pbrMetallicRoughness": {
                "baseColorTexture": {
                    "index": 0,
                    "texCoord": 0
                },
                "baseColorFactor": [
                    1.0,
                    1.0,
                    1.0,
                    1.0
                ],
                "metallicFactor": 0.400000005960464,
                "roughnessFactor": 0.70710676908493
            }
        }
    ],
    "meshes": [
        {
            "name": "Sphere001",
            "primitives": [
                {
                    "material": 0,
                    "mode": 4,
                    "attributes": {
                        "NORMAL": 2,
                        "POSITION": 1,
                        "TEXCOORD_0": 3
                    },
                    "indices": 0
                }
            ]
        }
    ],
    "nodes": [
        {
            "name": "RootNode",
            "translation": [
                0.0,
                0.0,
                0.0
            ],
            "rotation": [
                0.0,
                0.0,
                0.0,
                1.0
            ],
            "scale": [
                1.0,
                1.0,
                1.0
            ],
            "children": [
                1
            ]
        },
        {
            "name": "Sphere001",
            "translation": [
                0.0,
                -0.0541246980428696,
                -2.36586572555098e-09
            ],
            "rotation": [
                -0.5,
                -0.5,
                0.5,
                0.5
            ],
            "scale": [
                1.0,
                1.0,
                0.840022385120392
            ],
            "mesh": 0
        }
    ]
}